<svg width="64" height="64" viewBox="0 0 64 64" fill="none" xmlns="http://www.w3.org/2000/svg">
  <circle cx="32" cy="32" r="32" fill="#16A34A"/>
  <path d="M26.2 44.5C25.8 38.8 27.8 33.7 31.8 28.4C35.2 24 39.1 20.9 42.8 18.8C43.6 18.4 44.6 18.9 44.7 19.8C45.4 24.8 44 29.5 40.6 33.9C36.7 39 32.1 42.1 27 44.8C26.6 45 26.2 44.8 26.2 44.5Z" fill="#FACC15"/>
  <path d="M20.6 37.8C20.5 33.9 21.9 30.6 24.7 27.2C27 24.4 29.6 22.4 32.1 21.1C32.8 20.8 33.5 21.2 33.6 21.9C34 25.3 33 28.5 30.7 31.3C28.1 34.6 25 36.6 21.3 38.4C20.9 38.6 20.6 38.3 20.6 37.8Z" fill="#A3E635"/>
  <path d="M33.9 45.2C34.6 40.6 36.8 36.9 40.8 33.2C44 30.2 47.5 28.2 50.7 27C51.6 26.6 52.4 27.3 52.2 28.2C51.2 32.4 49 36.1 45.8 39.1C42.2 42.4 38.2 44.3 34.4 45.7C34.1 45.8 33.8 45.5 33.9 45.2Z" fill="#84CC16"/>
  <path d="M19.5 49.5C24.9 43.8 30.4 37 34.6 29.3" stroke="#14532D" stroke-width="2.2" stroke-linecap="round"/>
</svg>
