<svg width="96" height="96" viewBox="0 0 96 96" fill="none" xmlns="http://www.w3.org/2000/svg">
  <rect width="96" height="96" rx="24" fill="#052E2B"/>
  <path d="M16 64C24 58 33 58 41 64C49 58 58 58 66 64C74 58 82 58 80 64V74H16V64Z" fill="#15803D"/>
  <path d="M23 57C28 53 33 53 38 57" stroke="#22C55E" stroke-width="3" stroke-linecap="round"/>
  <path d="M41 57C46 53 51 53 56 57" stroke="#22C55E" stroke-width="3" stroke-linecap="round"/>
  <path d="M59 57C64 53 69 53 74 57" stroke="#22C55E" stroke-width="3" stroke-linecap="round"/>
  <rect x="39" y="26" width="18" height="24" rx="3" fill="#0F766E"/>
  <path d="M32 38L48 24L64 38" stroke="#5EEAD4" stroke-width="3" stroke-linecap="round" stroke-linejoin="round"/>
  <rect x="45" y="36" width="6" height="14" rx="1.5" fill="#99F6E4"/>
</svg>
